<svg xmlns="http://www.w3.org/2000/svg" viewBox="0 0 24 24" width="28" height="28" fill="currentColor" aria-hidden="true">
  <path d="M12 .5C5.65.5.5 5.65.5 12c0 5.08 3.29 9.39 7.86 10.91.58.11.79-.25.79-.56 0-.28-.01-1.02-.02-2-3.2.7-3.88-1.54-3.88-1.54-.53-1.36-1.3-1.72-1.3-1.72-1.06-.72.08-.71.08-.71 1.17.08 1.79 1.2 1.79 1.2 1.04 1.78 2.72 1.27 3.39.97.11-.76.41-1.27.74-1.56-2.56-.29-5.25-1.28-5.25-5.7 0-1.26.45-2.28 1.19-3.08-.12-.29-.52-1.47.11-3.06 0 0 .97-.31 3.18 1.18a11.07 11.07 0 0 1 2.89-.39c.98.01 1.97.13 2.89.39 2.2-1.49 3.17-1.18 3.17-1.18.63 1.59.23 2.77.11 3.06.74.8 1.19 1.82 1.19 3.08 0 4.43-2.7 5.4-5.27 5.68.42.36.8 1.08.8 2.18 0 1.57-.01 2.84-.01 3.23 0 .31.21.68.8.56C20.21 21.39 23.5 17.08 23.5 12 23.5 5.65 18.35.5 12 .5z"/>
</svg>